<?xml version="1.0" encoding="UTF-8"?>
<svg width="521px" height="293px" viewBox="0 0 521 293" version="1.1" xmlns="http://www.w3.org/2000/svg" xmlns:xlink="http://www.w3.org/1999/xlink">
    <title>Fichier 1 Copy 4</title>
    <defs>
        <linearGradient x1="9.93743893%" y1="36.1988217%" x2="89.2782975%" y2="54.185091%" id="linearGradient-1">
            <stop stop-color="#F15A2B" offset="0%"></stop>
            <stop stop-color="#DF5427" offset="21%"></stop>
            <stop stop-color="#B1451D" offset="62%"></stop>
            <stop stop-color="#813513" offset="100%"></stop>
        </linearGradient>
        <linearGradient x1="9.93797779%" y1="36.1988472%" x2="89.2975624%" y2="54.1850401%" id="linearGradient-2">
            <stop stop-color="#010061" offset="0%"></stop>
            <stop stop-color="#06044F" offset="37%"></stop>
            <stop stop-color="#100C28" offset="100%"></stop>
        </linearGradient>
        <linearGradient x1="9.95042481%" y1="36.2301189%" x2="89.2798261%" y2="54.19034%" id="linearGradient-3">
            <stop stop-color="#00769F" offset="0%"></stop>
            <stop stop-color="#00688D" offset="23%"></stop>
            <stop stop-color="#00455F" offset="69%"></stop>
            <stop stop-color="#002B3C" offset="100%"></stop>
        </linearGradient>
        <linearGradient x1="0%" y1="49.9843497%" x2="99.9891849%" y2="49.9843497%" id="linearGradient-4">
            <stop stop-color="#E9E9FD" offset="0%"></stop>
            <stop stop-color="#D3D2F9" offset="36%"></stop>
            <stop stop-color="#C5C4F7" offset="71%"></stop>
            <stop stop-color="#C0BFF6" offset="100%"></stop>
        </linearGradient>
    </defs>
    <g id="Page-1" stroke="none" stroke-width="1" fill="none" fill-rule="evenodd">
        <g id="Desktop-HD-Copy" transform="translate(-849.000000, -235.000000)" fill-rule="nonzero">
            <g id="Fichier-1-Copy-3" transform="translate(849.000000, 235.000000)">
                <path d="M68.2411246,109.486704 L114.467671,33.282389 C130.167517,7.63079865 164.18385,-5.19769116 196.455756,1.97071508 L357.379178,38.5638762 C397.065679,47.6185278 420.179342,83.4571907 407.529907,117.408935 L359.122048,249.446114 C345.168187,289.060636 290.654832,305.659595 250.967553,282.268805 L91.7885575,190.220029 C61.2618577,172.489322 51.2321792,137.779711 68.2403458,109.488725 L68.2411246,109.486704 Z" id="Path" fill="#DEE7FE" opacity="0.315772647"></path>
                <polygon id="Rectangle" fill="#099AA4" transform="translate(377.665921, 135.991263) rotate(-60.010000) translate(-377.665921, -135.991263) " points="377.665289 133.912176 377.666553 133.912176 377.666553 138.070349 377.665289 138.070349"></polygon>
                <path d="M368.452823,131 L361.958065,127.318026 L362.505242,126.385881 L369,130.044551 L368.452823,131 Z M355.463306,123.636052 L348.968548,119.977382 L349.515726,119.021933 L356.010484,122.703907 L355.463306,123.636052 Z M342.47379,116.295408 L335.979032,112.636737 L336.52621,111.681289 L343.020968,115.363263 L342.47379,116.295408 Z M329.484274,108.954764 L322.989516,105.27279 L323.536694,104.340644 L330.031452,108.022618 L329.484274,108.954764 Z M316.494758,101.614119 L310,97.9321453 L310.570968,97 L317.041935,100.65867 L316.494758,101.614119 Z" id="Shape" fill="#099AA4"></path>
                <polygon id="Rectangle" fill="#099AA4" transform="translate(301.902149, 92.254356) rotate(-59.990000) translate(-301.902149, -92.254356) " points="301.901517 90.1872876 301.902781 90.1872876 301.902781 94.3214246 301.901517 94.3214246"></polygon>
                <path d="M253.01197,145.994969 C248.843429,146.064565 244.725407,145.063607 241.042116,143.085485 L177.147037,105.771355 C174.26151,104.464543 172.294639,101.684993 172,98.4976449 C172.294639,95.3102969 174.26151,92.5307464 177.147037,91.2239353 L240.970297,53.9098047 C248.532643,50.0300651 257.467357,50.0300651 265.029703,53.9098047 L328.876903,91.248181 C331.753127,92.5617195 333.709939,95.3399761 334,98.5218906 C333.70508,101.701974 331.749836,104.478005 328.876903,105.7956 L265.029703,143.085485 C261.334799,145.078663 257.197461,146.08031 253.01197,145.994969 L253.01197,145.994969 Z M253.01197,51.9216574 C249.009118,51.8396849 245.052501,52.7997409 241.52091,54.7099127 L177.69765,92.0240433 C175.151616,93.1614669 173.405388,95.5966918 173.125166,98.4006621 C173.400514,101.206513 175.148341,103.64397 177.69765,104.777281 L241.54485,142.115657 C248.756291,145.802247 257.267649,145.802247 264.47909,142.115657 L328.30235,104.777281 C330.892214,103.675611 332.682205,101.230561 332.970593,98.4006621 C332.685816,95.591223 330.929509,93.1546982 328.374169,92.0240433 L264.47909,54.7099127 C260.956145,52.7996924 257.007214,51.8395012 253.01197,51.9216574 L253.01197,51.9216574 Z" id="Shape" fill="#F0B429"></path>
                <path d="M337.991017,85.4570958 L337.991017,63.3299329 L333.968008,61.0858477 C332.835783,67.9628831 324.765675,72.4993134 317.99642,73.4403814 L271.960668,100.514184 L251.893802,107.753168 L187.766553,74.6227489 L189.260126,73.7782007 C183.767634,71.1962962 180.828669,65.3327186 177.865615,60 L173.553527,62.5577746 L171,63.281673 L171,85.6983953 L171,85.6983953 C171.326756,89.1521803 173.478866,92.1646198 176.637031,93.5888885 L240.860639,130.724879 C249.427832,135.091707 259.563184,135.091707 268.130378,130.724879 L332.353986,93.5888885 C335.47057,92.190017 337.615114,89.2432491 337.991017,85.843175 C338.002994,85.7147616 338.002994,85.5855093 337.991017,85.4570958 L337.991017,85.4570958 Z" id="Path" fill="#F15A2B" opacity="0.3"></path>
                <path d="M337.966859,65.8759942 L337.966859,51.3741836 L333.944431,49.1486583 C332.812371,55.9688167 324.74343,60.4677282 317.975154,61.4010131 L271.946062,88.1791088 L251.882099,95.3582229 L187.764128,62.5257409 L189.257484,61.6642472 C183.765787,59.1276269 180.827247,53.3125445 177.864621,48 L173.553157,50.5605507 L171,51.2784621 L171,66.0913676 L171,66.0913676 C171.326708,69.5165879 173.478508,72.5041128 176.636215,73.916602 L240.874619,110.769388 C249.446164,115.076871 259.568867,115.076871 268.140413,110.769388 L332.35473,73.916602 C335.470862,72.5293 337.615096,69.6069035 337.990945,66.2349499 C338.003018,66.1155986 338.003018,65.9953455 337.990945,65.8759942 L337.966859,65.8759942 Z" id="Path" fill="url(#linearGradient-1)"></path>
                <path d="M317.451391,61.1714399 L272.150477,88.0400136 L255,94.3422216 L255,113.994527 C259.662132,114.088509 264.270688,112.970783 268.3892,110.747206 L331.455643,73.7036932 C334.516072,72.3092113 336.621976,69.3716904 336.991107,65.9822857 C337.002964,65.8623167 337.002964,65.7414412 336.991107,65.6214722 L336.991107,65.6214722 L336.991107,51.0446095 L333.395421,49 L333.016927,49 C331.786824,55.8554553 323.933089,60.2333249 317.451391,61.1714399 Z" id="Path" fill="#0F054C" opacity="0.3"></path>
                <path d="M240.870849,94.7624277 L176.635911,57.8302431 C169.121363,53.5134943 169.121363,46.4867865 176.635911,42.1700376 L240.846764,5.23785312 C249.426242,0.920715628 259.555694,0.920715628 268.135172,5.23785312 L332.346025,42.1700376 C339.884658,46.4867865 339.884658,53.5134943 332.346025,57.8302431 L268.135172,94.7624277 C259.564089,99.0791908 249.441932,99.0791908 240.870849,94.7624277 L240.870849,94.7624277 Z" id="Path" fill="#F15A2B"></path>
                <path d="M332.347107,58.0274091 L268.095736,94.9632797 C259.519244,99.2804736 249.3907,99.2804736 240.814208,94.9632797 L176.538736,58.0274091 C173.742312,56.6756101 171.725197,54.1199208 171.06797,51.0959373 C170.610065,54.2378848 172.465787,57.4517852 176.635137,59.8502183 L240.814208,96.7621045 C249.3907,101.079298 259.519244,101.079298 268.095736,96.7621045 L332.347107,59.754281 C336.516457,57.3558479 338.37218,54.1419474 337.938374,51 C337.285718,54.0857398 335.215517,56.6876809 332.347107,58.0274091 L332.347107,58.0274091 Z" id="Path" fill="#FFFFFF"></path>
                <path d="M438.053016,253.995874 C433.880143,254.07279 429.756821,253.0731 426.073038,251.091358 L362.123916,213.840928 C359.050152,212.726084 357,209.781999 357,206.482819 C357,203.183639 359.050152,200.239554 362.123916,199.12471 L426.025118,161.874281 C433.561267,158.041906 442.448925,158.041906 449.985074,161.874281 L513.862316,199.148914 C516.941902,200.251569 519,203.194296 519,206.494921 C519,209.795546 516.941902,212.738273 513.862316,213.840928 L449.985074,251.091358 C446.312939,253.058161 442.208915,254.057168 438.053016,253.995874 L438.053016,253.995874 Z M438.053016,160.083162 C434.057638,160.004476 430.108137,160.954027 426.576197,162.842453 L362.698955,200.117086 C359.955014,200.999336 358.091643,203.57388 358.091643,206.482819 C358.091643,209.391759 359.955014,211.966302 362.698955,212.848552 L426.576197,250.123185 C433.802084,253.803873 442.327908,253.803873 449.553795,250.123185 L513.431037,212.848552 C516.149088,211.940795 517.984668,209.374753 517.984668,206.482819 C517.984668,203.590885 516.149088,201.024843 513.431037,200.117086 L449.553795,162.842453 C446.009219,160.97218 442.050535,160.047399 438.053016,160.155775 L438.053016,160.083162 Z" id="Shape" fill="#F0B429"></path>
                <path d="M521,193.448711 L521,171.425324 L516.977355,169.181978 C515.845233,176.056748 507.751767,180.591684 501.007212,181.532442 L454.975624,208.500839 L434.886485,215.737439 L370.789124,182.617932 L372.258474,181.773662 C366.790567,179.192608 363.82778,173.330962 360.864994,168 L356.553296,170.556932 L354,171.280592 L354,193.689931 L354,193.689931 C354.326726,197.142578 356.478642,200.154025 359.636521,201.577825 L423.85432,238.725706 C432.429149,243.091431 442.570851,243.091431 451.14568,238.725706 L515.363479,201.577825 C518.479781,200.179414 520.624131,197.233617 521,193.834663 L521,193.448711 Z" id="Path" fill="#000000" opacity="0.2"></path>
                <path d="M521,173.875918 L521,159.517751 L516.977355,157.292235 C515.845233,164.112365 507.751767,168.611257 501.007212,169.544538 L454.975624,196.178938 L434.886485,203.358022 L370.789124,170.525679 L372.258474,169.664189 C366.790567,167.12758 363.82778,161.312522 360.864994,156 L356.553296,158.56054 L354,159.278448 L354,174.091291 L354,174.091291 C354.326726,177.516497 356.478642,180.504009 359.636521,181.916492 L423.85432,218.769121 C432.434726,223.07696 442.565274,223.07696 451.14568,218.769121 L515.363479,181.916492 C518.479781,180.529196 520.624131,177.606812 521,174.234873 L521,173.875918 L521,173.875918 Z" id="Path" fill="url(#linearGradient-2)"></path>
                <path d="M501.369195,169.053947 L456.171041,195.982463 L439,202.298732 L439,221.99488 C443.66848,222.085742 448.283042,220.965839 452.410441,218.740315 L515.465532,181.614159 C518.525411,180.216566 520.630936,177.272492 521,173.875525 L521,173.513907 L521,173.513907 L521,159.049171 L517.381309,157 L517.002884,157 C515.773003,163.581455 507.944332,168.113739 501.369195,169.053947 Z" id="Path" fill="#0F054C" opacity="0.3"></path>
                <path d="M423.864828,202.762147 L359.653975,165.829962 C352.115342,161.513214 352.115342,154.486506 359.653975,150.169757 L423.864828,113.237572 C432.435911,108.920809 442.558068,108.920809 451.129151,113.237572 L515.364089,150.169757 C522.878637,154.486506 522.878637,161.513214 515.364089,165.829962 L451.153236,202.762147 C442.573758,207.079284 432.444306,207.079284 423.864828,202.762147 Z" id="Path" fill="#010061"></path>
                <path d="M515.368114,166.94503 L451.15381,203.953147 C442.57387,208.27916 432.443875,208.27916 423.863935,203.953147 L359.649631,166.94503 C356.806271,165.622399 354.741099,163.055725 354.06159,160 C353.628035,163.148093 355.482687,166.36828 359.649631,168.771404 L423.863935,205.75549 C432.443875,210.081503 442.57387,210.081503 451.15381,205.75549 L515.368114,168.771404 C519.535059,166.36828 521.38971,163.148093 520.932069,160 C520.254343,163.04922 518.199894,165.61362 515.368114,166.94503 L515.368114,166.94503 Z" id="Path" fill="#FFFFFF"></path>
                <polygon id="Path" fill="#099AA4" points="133.553383 139 133 138.033916 212.446617 92 213 92.9660843"></polygon>
                <path d="M166.990913,160.478966 L166.990913,138.450277 L162.944984,136.20639 C161.813087,143.082816 153.745312,147.618844 146.978013,148.559828 L100.979651,175.510591 L80.8945021,182.748933 L16.8580386,149.64558 L18.3511791,148.801107 C12.8602751,146.219431 9.92215983,140.356374 6.95996163,135 L2.62503743,137.581676 L0,138.30551 L0,160.720244 L0,160.720244 C0.318368451,164.182658 2.47113725,167.20584 5.63540146,168.634165 L69.8404454,205.742735 C78.4107534,210.085755 88.5319941,210.085755 97.1023021,205.742735 L161.355512,168.634165 C164.471195,167.235418 166.615119,164.288911 166.990913,160.889139 C167.003029,160.760743 167.003029,160.631489 166.990913,160.503094 L166.990913,160.478966 Z" id="Path" fill="#00769F" opacity="0.3"></path>
                <path d="M166.990913,140.945689 L166.990913,126.608254 L162.944984,124.385952 C161.813087,131.220129 153.745312,135.688629 146.978013,136.620563 L100.979651,163.216503 L80.8945021,170.38522 L16.8580386,137.576392 L18.3511791,136.740041 C12.7880264,134.207094 9.8499111,128.400434 6.88771289,123 L2.5527887,125.556842 L0,126.369297 L0,141.16075 L0,141.16075 C0.326661184,144.58101 2.47814975,147.564208 5.63540146,148.974652 L69.8404454,185.774067 C78.4107534,190.075311 88.5319941,190.075311 97.1023021,185.774067 L161.355512,148.974652 C164.471195,147.589359 166.615119,144.671195 166.990913,141.304124 C167.003029,141.176964 167.003029,141.048953 166.990913,140.921793 L166.990913,140.945689 Z" id="Path" fill="url(#linearGradient-3)"></path>
                <path d="M146.267812,136.04941 L101.169173,162.99189 L84,169.305781 L84,188.994517 C88.6607851,189.088673 93.2680104,187.968875 97.385333,185.741176 L160.457211,148.628994 C163.516758,147.231927 165.622053,144.28896 165.991077,140.893273 C166.002974,140.765031 166.002974,140.635933 165.991077,140.507691 L165.991077,140.507691 L165.991077,126.0484 L162.37278,124 L161.994396,124 C160.764648,130.675373 152.913181,135.133655 146.267812,136.04941 Z" id="Path" fill="#03435B"></path>
                <path d="M69.836692,170.756555 L5.6350986,133.826597 C-1.8783662,129.510108 -1.8783662,122.483824 5.6350986,118.143355 L69.836692,81.2373772 C78.4065394,76.9208743 88.5272362,76.9208743 97.0970835,81.2373772 L161.34684,118.167335 C168.884387,122.483824 168.884387,129.510108 161.34684,133.826597 L97.1211651,170.756555 C88.5447724,175.081148 78.4130848,175.081148 69.836692,170.756555 Z" id="Path" fill="url(#linearGradient-4)"></path>
                <path d="M69.836692,170.756555 L5.6350986,133.826597 C-1.8783662,129.510108 -1.8783662,122.483824 5.6350986,118.143355 L69.836692,81.2373772 C78.4065394,76.9208743 88.5272362,76.9208743 97.0970835,81.2373772 L161.34684,118.167335 C168.884387,122.483824 168.884387,129.510108 161.34684,133.826597 L97.1211651,170.756555 C88.5447724,175.081148 78.4130848,175.081148 69.836692,170.756555 Z" id="Path" fill="#24126A"></path>
                <path d="M69.836692,170.756555 L5.6350986,133.826597 C-1.8783662,129.510108 -1.8783662,122.483824 5.6350986,118.143355 L69.836692,81.2373772 C78.4065394,76.9208743 88.5272362,76.9208743 97.0970835,81.2373772 L161.34684,118.167335 C168.884387,122.483824 168.884387,129.510108 161.34684,133.826597 L97.1211651,170.756555 C88.5447724,175.081148 78.4130848,175.081148 69.836692,170.756555 Z" id="Path" fill="#00769F"></path>
                <path d="M161.353412,134.94507 L97.1496327,171.953399 C88.5827069,176.279062 78.4654604,176.279062 69.8985346,171.953399 L5.69475477,134.94507 C2.83677338,133.631155 0.754465776,131.063905 0.0615772443,128 C-0.371744104,131.148111 1.48190833,134.368316 5.62253455,136.771455 L69.8744612,173.755753 C78.441387,178.081416 88.5586335,178.081416 97.1255593,173.755753 L161.353412,136.771455 C165.518112,134.368316 167.371765,131.148111 166.938443,128 C166.2593,131.055743 164.195241,133.622431 161.353412,134.94507 Z" id="Path" fill="#FFFFFF"></path>
                <g id="Group" transform="translate(51.000000, 100.000000)" fill="#FFFFFF">
                    <path d="M12.3460793,41.0327068 C9.4561042,39.1748577 6.99015615,36.7444368 5.10514965,33.8960978 C4.27891627,32.6132461 3.60663839,31.2401633 3.10182579,29.804442 C2.60014132,28.4318211 2.283658,27.0001713 2.16050495,25.5462653 C2.04344741,24.1007588 2.10830391,22.646531 2.3535964,21.2167225 C2.61891504,19.7494428 3.06470346,18.3195065 3.68110016,16.9585458 C5.0672381,13.9342269 7.13018509,11.2585015 9.71520817,9.13206461 C12.5840533,6.7717892 15.85213,4.92777055 19.369781,3.68445308 C21.1702081,3.03303608 23.017845,2.51615328 24.8970239,2.1381878 C26.808916,1.76883944 28.7444575,1.53038244 30.6897676,1.4245269 C32.6370732,1.32144259 34.5894604,1.36120001 36.5307841,1.54347038 C38.4670895,1.70568502 40.387688,2.01587076 42.275255,2.47122955 C45.9632132,3.36057229 49.46667,4.87376727 52.6297843,6.94350452 C55.5251806,8.79476052 57.9923969,11.2264314 59.8707139,14.0801135 C60.7090391,15.3597824 61.3896577,16.7333516 61.8981742,18.1717693 C62.8667631,20.928796 63.1239014,23.880072 62.6464036,26.7594888 C62.381085,28.2267685 61.9352965,29.6567048 61.3188998,31.0176655 C59.9211459,34.0283788 57.8597443,36.6939729 55.2847918,38.820358 C52.4233668,41.1969612 49.1536848,43.0499421 45.630219,44.2917582 C41.986196,45.6048767 38.161503,46.3668152 34.286096,46.5516844 C32.3518744,46.6126552 30.4157232,46.5331445 28.4933523,46.3137974 C26.5572842,46.1497042 24.6368318,45.8395421 22.7488815,45.3860383 C19.0197629,44.5088542 15.4692972,43.0125958 12.2495335,40.9613407 M53.9814245,5.87301317 C40.5132954,-2.8098611 20.0214646,-1.73936975 8.12220366,8.25188283 C-3.77705733,18.2431354 -2.42541714,33.4441126 11.0185755,42.1269868 C24.4625681,50.8098611 44.9785354,49.7393698 56.8777963,39.7481172 C68.7770573,29.7568646 67.4254171,14.5320987 53.9814245,5.87301317" id="Shape"></path>
                    <path d="M31.3173148,25.5462653 L9.59452601,34.7762796 C11.0457396,36.4812596 12.7457835,37.9644031 14.6390403,39.1771884 C17.0437567,40.7084173 19.6618599,41.8864187 22.4109714,42.6741269 L22.4109714,42.3886625 L31.2207691,25.7365749 M21.2524227,5.87301317 C17.9533371,6.96811818 14.8915429,8.66253894 12.2253971,10.8686395 C5.15342252,16.863391 3.70523659,25.1418574 7.59120215,31.8740586 L21.2524227,5.87301317 M58.9052566,28.234388 C58.3845793,28.8224619 57.8198062,29.3711464 57.2157064,29.8758081 C54.8437088,31.827916 52.1496704,33.3647281 49.2506838,34.4194491 L27.2623943,43.7684069 C36.3393429,45.2011319 45.6101162,42.8197631 52.8228758,37.2027266 C55.699196,34.8661911 57.8144811,31.747249 58.9052566,28.234388 M50.4092326,8.87038894 C42.9286805,4.33774987 33.9516754,2.85318377 25.3797526,4.73115573 L26.6589835,5.58754881 C28.7829895,6.96729321 32.3069085,8.89417764 32.3069085,8.89417764 L32.3069085,8.89417764 C33.3447751,9.56026115 32.0655442,10.7734847 30.8828591,10.1787673 C30.8828591,10.1787673 29.6760375,9.56026115 28.4692159,8.82281155 L16.4251363,30.0185402 L32.5965457,22.8819313 L37.0617857,14.3893666 C36.0239191,13.651917 35.0825982,12.86689 35.0825982,12.86689 C34.0688681,12.1294404 35.6135997,10.9875829 36.6514663,11.6774551 L36.6514663,11.6774551 C36.6514663,11.6774551 39.7892025,14.0563248 41.7683899,15.3409144 C43.7475773,16.625504 47.416315,18.6237546 47.416315,18.6237546 L47.416315,18.6237546 C48.4300451,19.2898381 47.1749507,20.5268503 45.9922655,19.9083442 C45.9922655,19.9083442 44.7854439,19.3136268 43.5786223,18.5761772 L31.7034977,39.5578076 L39.6443839,35.9657144 C42.2192995,34.9297193 44.6519845,33.5790504 46.8853135,31.9454247 C48.5205549,30.5871048 49.6640376,28.7421502 50.1437318,26.6881227 C50.3123308,24.9039335 51.0861128,23.2278148 52.3401471,21.9303834 C54.2179898,20.4308961 56.8409569,20.2320363 58.9293931,21.4308208 L59.1707574,21.6211303 C58.1953134,16.2638215 54.9111613,11.5864618 50.1678682,8.79902285" id="Shape"></path>
                </g>
                <path d="M453.995992,160.109026 L452.290255,159.038217 L451.876005,159.038217 L442.811231,166.771838 C442.153613,167.271704 441.803188,168.065083 441.882198,168.875214 C441.961207,169.685346 442.458693,170.399866 443.201114,170.769525 L444.419497,171.530989 C444.614439,171.530989 444.931218,171.530989 444.931218,171.364419 C444.883805,170.806837 445.039104,170.250771 445.369837,169.793899 L445.369837,169.532146 L445.22363,169.532146 C444.97359,169.410495 444.806119,169.170839 444.781276,168.899122 C444.756432,168.627405 444.877777,168.362567 445.101792,168.199583 L454.093463,160.513554 L454.093463,160.204209 M420.246767,138.788029 C417.580684,137.201835 414.266372,137.06698 411.474405,138.431093 L411.474405,138.431093 L410.962684,138.097952 L410.231654,137.693424 C409.226268,137.205624 408.112829,136.968542 406.990753,137.003347 C405.789769,137.027658 404.625031,137.40956 403.652382,138.097952 C401.781883,137.479552 399.717909,137.82891 398.169656,139.025986 C397.355345,139.637761 396.918665,140.61421 397.012574,141.61331 C397.106483,142.612409 397.717892,143.494915 398.632642,143.951708 L398.632642,143.951708 L406.91765,149.21057 L407.088224,149.21057 C408.669434,149.939173 410.529163,149.784806 411.961758,148.806042 L414.617835,146.426467 L417.590691,143.904116 L417.590691,143.523384 L416.908396,143.095061 L416.421042,143.095061 L410.913949,147.854212 C410.119927,148.482308 409.021368,148.59425 408.111666,148.139761 L407.892357,148.020782 L399.680452,142.833307 C399.116226,142.512946 398.753609,141.938107 398.714422,141.301908 C398.675234,140.665708 398.964676,140.052569 399.48551,139.668472 L399.826658,139.406719 C400.692878,138.885802 401.729927,138.707089 402.726411,138.907008 C403.131674,138.993169 403.518964,139.146059 403.871691,139.359127 L403.822956,139.359127 L404.310309,138.954599 L404.310309,138.954599 C405.730148,137.916193 407.647046,137.803879 409.183844,138.66905 L409.183844,138.66905 L409.451888,138.83562 L410.938316,139.763655 L411.376934,139.763655 L411.644979,139.573289 C413.896949,138.262691 416.70331,138.262691 418.95528,139.573289 C420.031247,140.127329 420.75162,141.170715 420.874111,142.352515 C420.996601,143.534316 420.504933,144.697498 419.564472,145.450841 L419.393898,145.593615 L418.784707,146.093326 L418.784707,146.307488 C419.557152,146.805825 420.033715,147.6394 420.062783,148.543018 C420.091851,149.446637 419.669805,150.307777 418.930913,150.852477 C417.065033,152.268254 414.50024,152.419475 412.47348,151.233209 L411.742449,150.757294 L411.255096,150.757294 L410.645904,151.257005 L410.645904,151.637737 L411.401302,152.066061 C414.131976,153.68989 417.607397,153.490809 420.124929,151.56635 C420.968433,150.939944 421.50589,149.998138 421.60767,148.96809 C421.709449,147.938042 421.366311,146.913261 420.661017,146.140918 C421.88998,145.203908 422.546536,143.720834 422.403597,142.204658 C422.260658,140.688482 421.337851,139.347397 419.954355,138.645254 M461.793647,169.579737 C460.041537,168.180156 457.558209,168.064218 455.677362,169.294188 C455.054147,169.74271 454.686267,170.453737 454.686267,171.209746 C454.686267,171.965756 455.054147,172.676783 455.677362,173.125305 L456.944481,174.481663 C457.748614,175.314514 457.870452,175.861817 457.285628,176.385323 C456.49734,176.804767 455.524935,176.700312 454.848861,176.12357 C453.922889,175.552472 453.362433,174.743416 453.971625,173.910565 L453.971625,173.625016 L452.119682,172.459024 L451.681064,172.459024 C450.316474,173.958156 451.144975,175.909408 453.338065,177.218175 C455.183112,178.712413 457.819707,178.829004 459.795498,177.503724 C461.086985,176.409119 461.160088,175.124148 459.795498,173.625016 L458.528379,172.244862 C457.870452,171.554785 457.675511,170.983687 458.235967,170.531567 C458.984899,170.012286 460.00519,170.08203 460.672734,170.698138 C461.403765,171.150257 461.720544,171.792742 461.306294,172.482819 L461.306294,172.744573 L463.060766,173.862973 L463.523752,173.862973 C464.669033,172.482819 464.157311,170.793321 462.110427,169.484554 M432.869221,150.971456 C431.121847,149.58348 428.652778,149.467746 426.777303,150.685907 C426.154088,151.134429 425.786208,151.845455 425.786208,152.601465 C425.786208,153.357475 426.154088,154.068502 426.777303,154.517024 L428.020054,155.873382 C428.824187,156.730029 428.946026,157.253536 428.361202,157.777042 C427.776377,158.300549 426.801671,158.133979 425.924434,157.539085 C425.047198,156.944191 424.462374,156.158931 425.047198,155.302284 L425.047198,155.016734 L423.219623,153.874538 L422.756637,153.874538 C421.416415,155.397467 422.220548,157.348719 424.413639,158.633689 C426.143109,160.11027 428.64617,160.340323 430.627395,159.204788 C431.943249,158.086387 431.991985,156.825212 430.627395,155.326079 L429.360276,153.92213 C428.677981,153.208257 428.507408,152.68475 429.043496,152.208835 C429.770564,151.768585 430.70529,151.835843 431.358425,152.375406 C431.701009,152.51938 431.966663,152.796247 432.091518,153.139442 C432.216372,153.482636 432.189135,153.861115 432.016352,154.183883 L432.016352,154.421841 L433.746457,155.540241 L434.209443,155.540241 C435.354723,154.136292 434.843002,152.446793 432.796118,151.138026 M442.811231,157.539085 C439.83873,155.635877 435.936318,155.878295 433.234736,158.133979 C431.949391,158.946987 431.224309,160.382989 431.346432,161.873705 C431.468556,163.36442 432.418202,164.669588 433.81956,165.272705 C435.989375,166.655953 438.704026,166.947556 441.129862,166.057965 L441.129862,165.701029 L439.326654,164.535037 L439.009874,164.535037 C437.796392,164.849858 436.502429,164.623283 435.476562,163.916347 C434.736289,163.587734 434.212658,162.920178 434.080561,162.136643 C433.948464,161.353107 434.225311,160.556859 434.818635,160.013843 L442.518819,164.772994 L442.518819,164.772994 L442.884334,164.772994 C444.201369,164.024912 444.995282,162.634516 444.954667,161.14718 C444.914051,159.659843 444.045384,158.312742 442.689393,157.634268 M476,179.050448 L474.074954,177.813069 L473.733807,177.813069 L464.839606,181.263453 L468.129242,174.267501 L468.129242,174.029543 L466.155461,172.768368 L465.692475,172.768368 L461.476868,182.286671 L459.892969,182.857769 C459.456781,183.000975 458.978961,182.95777 458.577115,182.73879 L457.431834,182.001122 L457.017584,182.001122 L455.677362,183.143318 L455.677362,183.452663 L457.115054,184.356902 C458.298244,185.05163 459.738183,185.191371 461.03825,184.737634 L475.951265,179.288406 L475.951265,178.931469 M413.570025,143.071265 L412.814627,142.59535 L412.351641,142.59535 L410.085448,144.522806 L408.306608,146.045734 L408.306608,146.378875 L409.062006,146.85479 L409.524991,146.85479 L411.181993,145.450841 L413.61876,143.404406 L413.61876,143.071265 M410.109815,142.547758 L409.378785,142.095639 L408.867064,142.095639 L406.064782,144.475215 L406.064782,144.927334 L406.771444,145.379453 L407.307533,145.379453 L408.867064,144.046891 L410.109815,142.976082 L410.109815,142.547758 M406.405929,142.000456 L405.723634,141.572132 L405.236281,141.572132 L403.603647,142.952286 L403.603647,143.309223 L404.261574,143.737546 L404.773295,143.737546 L405.650531,142.976082 L406.405929,142.357392 L406.405929,141.97666 M436.305063,158.776464 L436.305063,158.776464 C437.78475,157.959234 439.607248,158.014277 441.032391,158.919238 C441.658085,159.220106 442.10237,159.790905 442.231768,160.460148 C442.361165,161.129392 442.160596,161.819088 441.690318,162.322032 L436.207592,158.847851 M458.406541,163.0597 L456.725172,161.988891 L456.286553,161.988891 L447.246147,169.698716 C446.588529,170.198582 446.238104,170.991961 446.317114,171.802092 C446.396124,172.612224 446.893609,173.326744 447.63603,173.696403 L448.805678,174.457867 C449.024987,174.576846 449.317399,174.457867 449.317399,174.267501 C449.256987,173.712493 449.423374,173.156633 449.780385,172.720777 L449.780385,172.482819 L449.634179,172.482819 C449.398708,172.339397 449.255609,172.087545 449.255609,171.816538 C449.255609,171.545532 449.398708,171.293679 449.634179,171.150257 L458.62585,163.464228 L458.62585,163.154883" id="Shape" fill="#FFFFFF"></path>
                <g id="Group" transform="translate(221.000000, 32.000000)" fill="#FFFFFF">
                    <path d="M9.23900911,5.75881319 C6.81994564,4.21347344 3.67449687,4.39925939 1.45625394,6.21850167 C0.454270356,6.90862865 -0.0967546577,8.08182718 0.0140363911,9.28915626 C0.12482744,10.4964853 0.880283387,11.5510427 1.99131835,12.0492871 C3.65337302,13.1735066 5.76915284,13.4003098 7.63381585,12.6541404 C8.47939071,12.2867253 9.24075362,11.7516143 9.87135797,11.0815219 L6.0286226,8.66210885 L4.76392488,9.77503885 L6.97714589,11.2266867 C5.81448234,11.8513271 4.38965483,11.7276623 3.35330051,10.912163 C1.89403391,9.99278602 1.8697128,8.49274993 3.20737385,7.40401406 C4.49344709,6.23700741 6.40483544,6.06865348 7.87702695,6.99271384 C8.80122913,7.5975671 9.19036689,8.25080863 8.89851357,9.12179733 L10.6009913,10.2347273 C11.7927257,8.49274993 10.8442024,6.84754906 9.23900911,5.80720145" id="Path"></path>
                    <path d="M13.2519922,13.7670704 L15.416571,11.9041223 L17.1676909,13.0170523 C17.4928958,13.1667659 17.7123414,13.4785506 17.7425161,13.8337545 C17.7726909,14.1889585 17.6089544,14.5329557 17.3136176,14.7348356 C16.6559063,15.2690725 15.7324356,15.3367625 15.0031122,14.9041945 L13.2519922,13.7670704 M18.505352,11.8557341 L15.0274333,9.60567994 L7.97431139,15.726795 L9.72543131,16.8639191 L12.1575423,14.8558063 L13.6168089,15.7993773 L12.98446,18.8962261 L14.8571855,20.1059326 L15.0517544,19.9365737 L15.5624977,16.6945602 C16.8100845,16.957447 18.1099494,16.6364069 19.0890586,15.8235715 C19.69542,15.299761 20.0027591,14.5119533 19.9103374,13.7183731 C19.8179157,12.9247929 19.3376491,12.2277558 18.6269575,11.8557341" id="Shape"></path>
                    <path d="M21.4482063,20.7833682 L24.8774828,19.4768852 L23.7100695,22.2350161 L21.4482063,20.7833682 M27.6500893,17.7349078 L26.8474927,17.2026369 L16.1948465,20.7833682 L16.0002777,20.9527271 L17.8000398,22.1382395 L19.5998019,21.5333863 L23.0047573,23.710858 L22.4696929,25.1383117 L24.269455,26.29963 L24.488345,26.1302711 L27.6500893,17.7349078" id="Shape"></path>
                    <polyline id="Path" points="38.643231 24.8963704 36.7948266 23.6866639 33.4141924 24.9447587 30.8361547 25.8883298 30.8118336 25.8641356 31.6144302 23.7834404 32.7818435 21.1220861 30.9334392 19.9123795 30.7145492 20.1059326 27.4068782 28.2835487 28.1121904 28.7432372 38.424341 25.0657293 38.643231 24.8963704"></polyline>
                    <polyline id="Path" points="42.0725075 27.0738422 40.3213876 25.9609122 33.2439446 32.0820272 33.2439446 32.1062213 34.9950645 33.2191513 42.0725075 27.0738422"></polyline>
                    <polyline id="Path" points="50.584896 32.614298 43.726343 28.162578 42.413003 29.2997022 44.9910407 30.9932913 39.2512587 35.9530881 40.9537364 37.0660181 46.6935184 32.0820272 49.271556 33.7514222 50.584896 32.614298"></polyline>
                    <polyline id="Path" points="59 38.0579774 57.1515956 36.8482709 54.7194847 37.4773183 52.5062637 38.1789481 52.4333003 38.1305598 53.017007 36.4611648 53.5034292 34.5256344 51.6307037 33.2917337 51.4118137 33.4852867 50.2200793 38.7838013 47.4231517 41.2274085 49.1742716 42.3403385 51.9711992 39.9209255 58.8054311 38.2515305 59 38.0579774"></polyline>
                    <path d="M33.4628346,8.95243841 C35.7992619,6.91485567 38.606931,5.48510035 41.6347275,4.79104797 C43.1052873,4.63864013 44.583512,4.99771741 45.8179584,5.80720145 L54.5492369,11.4202397 L52.3846581,13.3073819 L52.3846581,13.3073819 L43.6290585,7.6701495 C43.142477,7.32477039 42.5450783,7.1697409 41.9509019,7.23465515 C40.5922823,7.43248891 39.3048428,7.96473526 38.205451,8.7830795 L46.7908028,14.3235354 L48.6878494,12.7025286 L51.1199604,14.2751471 L47.1069773,17.7591019 L33.4385135,8.95243841 M53.2358969,2.10549948 C52.6547187,1.7301864 51.9996425,1.48272207 51.3145293,1.37967556 L41.3428742,0.0248042554 C39.9737728,-0.10447469 38.604999,0.274712693 37.5001388,1.089346 L30.8847969,6.92013145 C30.0282239,7.66533048 29.7275652,8.8616864 30.1308425,9.92020363 L33.4871557,17.1784428 C33.764713,17.6832472 34.1771465,18.1019005 34.6788901,18.3881493 C35.2499963,18.7657167 35.8976857,19.0135275 36.5759367,19.1139732 L46.5719128,20.4446504 C47.9396741,20.6026559 49.3160187,20.2300368 50.4146482,19.4043028 L57.0299901,13.5735173 C57.8716895,12.8187641 58.1614177,11.627473 57.7596234,10.5734452 L54.4276313,3.315206 C54.1372503,2.81355575 53.7281662,2.38999735 53.2358969,2.08130535" id="Shape"></path>
                    <polyline id="Path" points="9.65246798 19.8881854 6.00430149 17.5413547 0.459088429 22.3559867 1.1157584 22.7672869 3.5721905 20.6382034 6.41776036 22.4769574 6.92850367 22.0172689 4.08293381 20.178515 6.12590704 18.3881493 9.14172467 20.3478739 9.65246798 19.8881854"></polyline>
                    <path d="M9.53086243,27.5335306 C8.83301869,27.1933456 8.36258906,26.5173255 8.28820816,25.7478029 C8.21382726,24.9782803 8.54614884,24.2254756 9.16604578,23.7592463 C10.6116259,22.625877 12.6175058,22.5193261 14.1761944,23.4931108 C14.8744735,23.8265704 15.3467017,24.4989067 15.4213116,25.2658501 C15.4959214,26.0327935 15.1620551,26.7827317 14.5410111,27.2432011 C13.1007037,28.3841661 11.0946017,28.5004163 9.53086243,27.5335306 M14.73558,23.0092282 C12.7983609,21.8164492 10.3169788,21.9616508 8.53369692,23.3721402 C7.77260624,23.9328743 7.35537605,24.8439331 7.42952701,25.7831923 C7.50367796,26.7224515 8.05876058,27.5575493 8.89851357,27.9932191 C10.8287929,29.2002307 13.3145487,29.0644704 15.1003966,27.6545013 C15.8671736,27.0841791 16.2803264,26.1579996 16.1909609,25.2097444 C16.1015954,24.2614891 15.5225926,23.4278386 14.6626166,23.0092282" id="Shape"></path>
                    <path d="M17.8243609,29.4206728 L20.2564719,27.41256 L22.1778396,28.6706548 C22.5012297,28.8468281 22.7137134,29.1731414 22.743116,29.5387553 C22.7725186,29.9043692 22.6148878,30.260137 22.3237662,30.4852146 C21.6251483,31.0336686 20.6602703,31.1008574 19.8916553,30.6545735 L17.9702876,29.4206728 M22.8345096,28.2351604 L20.2564719,26.5657654 L14.6869377,31.4045915 L15.3436077,31.8400859 L17.5568287,29.9045554 L19.3565908,31.0658737 L18.4323887,33.9691694 L19.162022,34.4288578 L19.8673341,31.4287857 C20.8827075,31.7798364 22.0075717,31.5978866 22.8588307,30.944903 C23.2917282,30.6025329 23.5205181,30.0651126 23.466462,29.5175961 C23.4124058,28.9700796 23.0828827,28.4872073 22.5912985,28.2351604" id="Shape"></path>
                    <polyline id="Path" points="32.441348 34.5982168 31.6630725 34.09014 26.4097127 35.3966231 27.3339149 31.307815 26.5313183 30.7997383 20.9861052 35.6143702 21.6184541 36.0256705 26.3367494 31.9368624 25.3152628 36.2192235 25.4368683 36.2676118 30.9334392 34.9127404 26.2394649 39.0015485 26.8718138 39.4128487 26.8961349 39.4370429 32.441348 34.5982168"></polyline>
                    <path d="M36.7218633,37.2111828 C35.6815053,36.4449421 34.2599815,36.4449421 33.2196235,37.2111828 C32.1981369,38.0821715 32.9764124,38.9531602 33.7303668,39.8967313 C34.4843212,40.8403024 34.8248167,41.3483792 34.1924679,41.88065 C33.4700697,42.4129806 32.4827551,42.4129806 31.7603569,41.88065 C30.7388703,41.2274085 30.5686225,40.4531963 31.0064025,39.7273724 L30.1794847,39.6064018 C29.6444203,40.574167 30.009237,41.5661263 31.2009714,42.3645326 C32.3041877,43.2118225 33.8432059,43.2118225 34.9464223,42.3645326 C35.9679089,41.4693498 35.1896334,40.5499729 34.3627157,39.4854311 C33.5357979,38.4208894 33.3898713,38.2031422 33.997899,37.6708713 C34.6608525,37.1497341 35.5968087,37.1497341 36.2597622,37.6708713 C36.5947197,37.8185424 36.8557443,38.0942316 36.9838865,38.4356776 C37.1120287,38.7771235 37.0964805,39.1555276 36.9407533,39.4854311 L37.7433499,39.6064018 C38.1023218,38.683486 37.7036581,37.6398483 36.8191478,37.1869887" id="Path"></path>
                </g>
            </g>
        </g>
    </g>
</svg>